<?xml version="1.0" encoding="UTF-8"?>
<svg id="brass-dark" xmlns="http://www.w3.org/2000/svg" viewBox="0 0 256 256">
  <defs>
    <style>
      .cls-1 {
        opacity: .7;
        stroke: rgba(217, 181, 106, .7);
      }

      .cls-1, .cls-2, .cls-3 {
        fill: none;
        stroke-miterlimit: 10;
        stroke-width: 5px;
      }

      .cls-2 {
        opacity: .9;
        stroke: rgba(217, 181, 106, .9);
      }

      .cls-3 {
        opacity: .8;
        stroke: rgba(217, 181, 106, .8);
      }
    </style>
  </defs>
  <g>
    <path class="cls-1" d="M128,38c49.71,0,90,40.29,90,90s-40.29,90-90,90-90-40.29-90-90"/>
    <path class="cls-3" d="M128,58c38.66,0,70,31.34,70,70s-31.34,70-70,70-70-31.34-70-70"/>
    <path class="cls-2" d="M128,83c24.85,0,45,20.15,45,45s-20.15,45-45,45-45-20.15-45-45"/>
  </g>
  <g>
    <path class="cls-1" d="M99.79,52.35c41.78-14.37,87.3,7.85,101.67,49.63,14.37,41.78-7.85,87.3-49.63,101.67-41.78,14.37-87.3-7.85-101.67-49.63"/>
    <path class="cls-3" d="M105.58,69.16c32.5-11.18,67.9,6.1,79.08,38.6s-6.1,67.9-38.6,79.08c-32.5,11.18-67.9-6.1-79.08-38.6"/>
    <path class="cls-2" d="M112.8,90.18c20.89-7.19,43.65,3.92,50.84,24.81s-3.92,43.65-24.81,50.84c-20.89,7.19-43.65-3.92-50.84-24.81"/>
  </g>
</svg>