<?xml version="1.0" encoding="UTF-8"?>
<svg id="logo" xmlns="http://www.w3.org/2000/svg" viewBox="0 0 256 256">
  <defs>
    <style>
      .cls-1 {
        fill: #ff9e2c;
      }

      .cls-2 {
        stroke: #4353ff;
      }

      .cls-2, .cls-3 {
        fill: none;
        stroke-linecap: round;
        stroke-miterlimit: 10;
        stroke-width: 25px;
      }

      .cls-3 {
        stroke: #2dd4bf;
      }
    </style>
  </defs>
  <g>
    <line class="cls-2" x1="71.92" y1="127.63" x2="21.92" y2="78"/>
    <line class="cls-2" x1="21.92" y1="178" x2="71.92" y2="128.36"/>
  </g>
  <g>
    <line class="cls-3" x1="139.42" y1="127.63" x2="89.42" y2="78"/>
    <line class="cls-3" x1="89.42" y1="178" x2="139.42" y2="128.36"/>
  </g>
  <path class="cls-1" d="M177.61,79.64h36.33c4.09,0,28.15,0,28.15,24.18,0,19.09-15.13,37.2-38.19,37.2h-21.82c-2.48,14.13-3.6,21.2-6.08,35.34h-15.5l17.11-96.71ZM203.02,125.89c12.15,0,22.44-6.57,22.44-18.47,0-10.66-8.31-13.39-16.86-13.39h-18.1c-1.98,11.66-4.09,23.93-5.46,31.87h17.98Z"/>
</svg>