<?xml version="1.0" encoding="UTF-8"?>
<svg id="dark" xmlns="http://www.w3.org/2000/svg" viewBox="0 0 960 256">
  <defs>
    <style>
      .cls-1 {
        fill: #ff9e2c;
      }

      .cls-2 {
        fill: #4353ff;
      }

      .cls-3 {
        stroke: #4353ff;
      }

      .cls-3, .cls-4 {
        fill: none;
        stroke-linecap: round;
        stroke-miterlimit: 10;
        stroke-width: 25px;
      }

      .cls-5 {
        fill: #fff;
      }

      .cls-4 {
        stroke: #2dd4bf;
      }
    </style>
  </defs>
  <g>
    <path class="cls-5" d="M413.28,95.51h8v14.38h.23c6.53-11.28,17.68-16.37,29.17-16.37,19.6,0,34.47,15.13,34.47,36.21s-15.32,36.33-34.69,36.33c-12.5,0-23.2-6.08-28.95-15.87v41.04h-8.22v-95.72ZM476.25,129.74c0-16.49-11.6-28.52-27.03-28.52s-27.71,11.66-27.71,28.64,12.73,28.52,27.71,28.52,27.03-12.15,27.03-28.64Z"/>
    <path class="cls-5" d="M503.84,95.51h8v14.14h.56c3.72-9.55,13.4-16.12,24.33-16.12,2.59,0,5.86.37,8.67,1.36v9.05c-2.7-1.12-6.87-1.61-9.24-1.61-15.88,0-24.1,14.63-24.1,28.39v33.23h-8.22v-68.44Z"/>
    <path class="cls-5" d="M550.13,130.11c0-21.58,15.54-36.58,35.59-36.58,13.85,0,34.58,7.19,34.58,34.35v4.09h-61.16c.23,15.5,11.49,26.41,27.37,26.41,12.62,0,22.08-6.82,27.26-17.73l7.55,2.73c-5.97,14.88-19.26,22.69-35.03,22.69-21.06,0-36.16-14.51-36.16-35.96ZM585.84,101.47c-13.63,0-24.44,9.67-26.36,21.82h50.8c-.34-16.49-14.19-21.82-24.44-21.82Z"/>
    <path class="cls-2" d="M639.9,95.51h8v14.38h.23c6.53-11.28,17.68-16.37,29.17-16.37,19.6,0,34.47,15.13,34.47,36.21s-15.32,36.33-34.69,36.33c-12.5,0-23.2-6.08-28.95-15.87v41.04h-8.22v-95.72ZM702.87,129.74c0-16.49-11.6-28.52-27.03-28.52s-27.71,11.66-27.71,28.64,12.73,28.52,27.71,28.52,27.03-12.15,27.03-28.64Z"/>
    <path class="cls-2" d="M724.6,129.86c0-21.33,15.43-36.33,37.28-36.33s37.06,15,37.06,36.33-15.32,36.21-37.06,36.21-37.28-14.88-37.28-36.21ZM790.16,129.86c0-16.74-11.49-28.64-28.27-28.64s-28.39,11.9-28.39,28.64,11.71,28.52,28.39,28.52,28.27-11.78,28.27-28.52Z"/>
    <path class="cls-2" d="M817.75,64.76h8.22v99.19h-8.22v-99.19Z"/>
    <path class="cls-2" d="M870.8,164.95l-30.3-69.44h9.01c8.56,19.22,16.67,38.44,25.34,58.52h.23c8.45-19.84,16.56-39.55,25.01-58.52h9.01l-42.01,95.72h-7.66l11.38-26.29Z"/>
  </g>
  <g>
    <g>
      <line class="cls-3" x1="150.77" y1="127.63" x2="100.77" y2="78"/>
      <line class="cls-3" x1="100.77" y1="178" x2="150.77" y2="128.36"/>
    </g>
    <g>
      <line class="cls-4" x1="218.27" y1="127.63" x2="168.27" y2="78"/>
      <line class="cls-4" x1="168.27" y1="178" x2="218.27" y2="128.36"/>
    </g>
    <path class="cls-1" d="M256.46,79.64h36.33c4.09,0,28.15,0,28.15,24.18,0,19.09-15.13,37.2-38.19,37.2h-21.82c-2.48,14.13-3.6,21.2-6.08,35.34h-15.5l17.11-96.71ZM281.87,125.89c12.15,0,22.44-6.57,22.44-18.47,0-10.66-8.31-13.39-16.86-13.39h-18.1c-1.98,11.66-4.09,23.93-5.46,31.87h17.98Z"/>
  </g>
</svg>