<?xml version="1.0" encoding="UTF-8"?>
<svg id="brass-light" xmlns="http://www.w3.org/2000/svg" viewBox="0 0 800 256">
  <defs>
    <style>
      .cls-1 {
        fill: #d9b56a;
      }

      .cls-1, .cls-2 {
        opacity: .9;
      }

      .cls-3 {
        opacity: .7;
        stroke: rgba(217, 181, 106, .7);
      }

      .cls-3, .cls-2, .cls-4 {
        fill: none;
        stroke-miterlimit: 10;
        stroke-width: 5px;
      }

      .cls-2 {
        stroke: rgba(217, 181, 106, .9);
      }

      .cls-4 {
        opacity: .8;
        stroke: rgba(217, 181, 106, .8);
      }
    </style>
  </defs>
  <g>
    <path d="M260.04,79.76h36.08c21.15,0,32.59,11.62,32.59,24.57,0,8.96-5.56,18.52-18.53,21.67v.24c15.37,2.54,21.91,12.47,21.91,22.76,0,14.53-13.19,25.18-31.06,25.18h-40.98v-94.42ZM295.14,122.86c15.48,0,24.63-7.14,24.63-17.31,0-11.02-10.9-17.91-25.72-17.91h-25.4v35.22h26.49ZM298.19,166.31c15.48,0,24.85-7.26,24.85-17.55s-10.46-18.28-25.83-18.28h-28.56v35.83h29.54Z"/>
    <path d="M350.29,107.36h7.74v13.8h.54c3.6-9.32,12.97-15.74,23.54-15.74,2.51,0,5.67.36,8.39,1.33v8.84c-2.62-1.09-6.65-1.57-8.94-1.57-15.37,0-23.32,14.29-23.32,27.72v32.44h-7.96v-66.82Z"/>
    <path d="M395.84,158.81c0-12.83,12.32-17.79,26.27-20.46,12.21-2.3,23-2.54,23-11.5,0-7.38-7.41-14.4-18.75-14.4-10.03,0-17.44,5.57-20.16,14.04l-7.85-2.78c4.25-12.83,16.78-18.28,28.34-18.28,12.86,0,26.81,6.42,26.81,22.27v25.54c0,11.14.87,15.74,2.29,20.94h-8.07c-1.31-4.36-1.74-8.72-1.74-13.92h-.33c-4.58,9.2-13.52,15.98-27.03,15.98-12.21,0-22.78-5.69-22.78-17.43ZM445.22,147.43v-9.08c-4.03,2.78-6.87,3.87-17.33,5.69-8.39,1.45-23.43,4.12-23.43,14.53,0,6.78,6.21,11.02,15.15,11.02,15.8,0,25.61-13.2,25.61-22.15Z"/>
    <path d="M468.87,157.48l7.52-2.42c3.71,8.47,12.97,14.16,22.13,14.16,6.1,0,16.89-2.79,16.89-12.11,0-7.87-8.28-10.05-15.48-11.86l-6.98-1.81c-6.32-1.7-20.71-5.69-20.71-19.37,0-12.71,12.75-18.64,23.54-18.64,12.21,0,22.13,7.14,25.4,16.34l-7.74,2.66c-2.4-6.17-8.94-11.98-18.53-11.98-8.28,0-14.5,4.24-14.5,10.89,0,8.47,10.14,11.62,17,13.44l6.98,1.82c6.87,1.81,19.51,4.96,19.51,17.43,0,11.38-10.46,20.21-25.5,20.21-13.95,0-25.61-7.5-29.54-18.76Z"/>
    <path d="M533.5,157.48l7.52-2.42c3.71,8.47,12.97,14.16,22.13,14.16,6.1,0,16.89-2.79,16.89-12.11,0-7.87-8.28-10.05-15.48-11.86l-6.98-1.81c-6.32-1.7-20.71-5.69-20.71-19.37,0-12.71,12.75-18.64,23.54-18.64,12.21,0,22.13,7.14,25.4,16.34l-7.74,2.66c-2.4-6.17-8.94-11.98-18.53-11.98-8.28,0-14.5,4.24-14.5,10.89,0,8.47,10.14,11.62,17,13.44l6.98,1.82c6.87,1.81,19.51,4.96,19.51,17.43,0,11.38-10.46,20.21-25.5,20.21-13.95,0-25.61-7.5-29.54-18.76Z"/>
    <path class="cls-1" d="M601.94,168.13c0-3.63,3.05-6.66,6.98-6.66,3.71,0,6.65,3.03,6.65,6.66,0,3.87-2.94,6.9-6.65,6.9-3.92,0-6.98-3.03-6.98-6.9Z"/>
    <path class="cls-1" d="M627.77,140.89c0-21.18,14.82-35.47,35.86-35.47,12.53,0,25.07,5.33,30.85,19l-7.74,3.03c-3.6-9.08-12.53-14.53-23.54-14.53-16.46,0-26.81,12.1-26.81,27.96,0,16.71,11.33,27.84,27.47,27.84,13.52,0,22.23-7.51,26.49-17.31l7.3,2.66c-5.67,14.53-18.75,22.15-34.12,22.15-20.93,0-35.75-14.28-35.75-35.35Z"/>
    <path class="cls-1" d="M747.44,114.87h-40.11v-7.5h50.79v6.29c-14.17,17.55-28.45,35.47-42.62,53.02h45.67v7.51h-56.24v-6.29c14.06-17.43,28.34-35.47,42.51-53.02Z"/>
  </g>
  <g>
    <path class="cls-3" d="M128.82,38c49.71,0,90,40.29,90,90s-40.29,90-90,90-90-40.29-90-90"/>
    <path class="cls-4" d="M128.82,58c38.66,0,70,31.34,70,70s-31.34,70-70,70-70-31.34-70-70"/>
    <path class="cls-2" d="M128.82,83c24.85,0,45,20.15,45,45s-20.15,45-45,45-45-20.15-45-45"/>
  </g>
  <g>
    <path class="cls-3" d="M102.8,52.35c41.78-14.37,87.3,7.85,101.67,49.63,14.37,41.78-7.85,87.3-49.63,101.67-41.78,14.37-87.3-7.85-101.67-49.63"/>
    <path class="cls-4" d="M108.58,69.16c32.5-11.18,67.9,6.1,79.08,38.6,11.18,32.5-6.1,67.9-38.6,79.08-32.5,11.18-67.9-6.1-79.08-38.6"/>
    <path class="cls-2" d="M115.81,90.18c20.89-7.19,43.65,3.92,50.84,24.81,7.19,20.89-3.92,43.65-24.81,50.84-20.89,7.19-43.65-3.92-50.84-24.81"/>
  </g>
</svg>